PathFileType	4	(X/Y/Z)	path1_12_0-587.trc
DataRate	CameraRate	NumFrames	NumMarkers	Units	OrigDataRate	OrigDataStartFrame	OrigNumFrames
30	30	8	22	m	30	513	587
Frame#	Time	Hip			RHip			RKnee			RAnkle			RBigToe			RSmallToe			RHeel			LHip			LKnee			LAnkle			LBigToe			LSmallToe			LHeel			Neck			Head			Nose			RShoulder			RElbow			RWrist			LShoulder			LElbow			LWrist		
		X1	Y1	Z1	X2	Y2	Z2	X3	Y3	Z3	X4	Y4	Z4	X5	Y5	Z5	X6	Y6	Z6	X7	Y7	Z7	X8	Y8	Z8	X9	Y9	Z9	X10	Y10	Z10	X11	Y11	Z11	X12	Y12	Z12	X13	Y13	Z13	X14	Y14	Z14	X15	Y15	Z15	X16	Y16	Z16	X17	Y17	Z17	X18	Y18	Z18	X19	Y19	Z19	X20	Y20	Z20	X21	Y21	Z21	X22	Y22	Z22
514	17.133333333333333	-2.3666763863083475	0.8026414909715854	0.8091109275731359	-2.369478115056521	0.7719246488305458	0.7209001022278613	-2.3244171915332386	0.4363225250043821	0.6944128210342758	-2.2940873014141636	0.06587247658406392	0.6986858053842322	-2.470590054747587	-0.02011830435893707	0.6907510326949488	-2.4393962434384124	-0.03504855560232197	0.6493058824772303	-2.2491634845980686	-0.0034090522778645353	0.7119417618693169	-2.3578267703550275	0.7679107915470166	0.8890277340694666	-2.3187496318962615	0.4100045765159024	0.8753024129355255	-2.275801457907646	0.051912180507950094	0.852349937065276	-2.440275231054565	-0.020161511300107827	0.8812040443511032	-2.4848371062248753	-0.05141077350197759	0.8921709812322509	-2.2292908230400497	-0.014402725085823822	0.8429174054217711	-2.331315830105761	1.442832374976942	0.8286527961614736	-2.38770564174671	1.6481858713242532	0.841760362972865	-2.4524994591442972	1.499044677235763	0.8509961499082411	-2.301047567217998	1.3464548435417152	0.650490425397859	-2.247628889011658	1.07093771127829	0.6114846841624908	-2.2541512853848125	0.8237128709918841	0.6052308523348056	-2.316955863409041	1.320146269393687	1.0091452600577346	-2.295257061888155	1.0245805579492089	1.0038682244268242	-2.313088754926663	0.8045716105440928	1.0069450414982404
515	17.166666666666668	-2.368074751479557	0.8024706061542866	0.8066689241985816	-2.3713710885970176	0.7709307027463994	0.7182727908640969	-2.3251754683684838	0.43616501036724925	0.6936157376250647	-2.2940170786146146	0.06613009468971215	0.699202926296565	-2.4709809655998316	-0.0205696015040086	0.6909669571002899	-2.439704154290404	-0.03564105261098982	0.649518387520887	-2.248811242793743	-0.0030850159005528805	0.7124641329825037	-2.359265423186675	0.767180386460456	0.8860751348138878	-2.319193744963855	0.41071446589329275	0.8738792424966743	-2.275316888415399	0.052725575414635115	0.8521235980466446	-2.4397798787695906	-0.019623634518558405	0.8797630160030343	-2.4834008830721075	-0.050284315205830356	0.893546872991615	-2.2283983568236287	-0.013865550815124573	0.8433897952770774	-2.3332140213205035	1.4427440750553606	0.825662415605064	-2.3879662970341067	1.6528758400445747	0.8213888702966231	-2.451656708158159	1.5010434254164668	0.8675805471314801	-2.303733868386331	1.3456420444994868	0.6474020057170536	-2.24994480014422	1.0694070748807778	0.6094349559537746	-2.2565358418884043	0.8225461348267269	0.6034783688432319	-2.319288902750739	1.3199893330721877	1.0054938959973354	-2.297385245693544	1.0261713539217865	1.0018473527750773	-2.314843390018323	0.8058200641868178	1.003210070829075
516	17.2	-2.3690571160411777	0.8023189429410668	0.80447575437816	-2.3727088223590487	0.7697069301307976	0.7160648186283002	-2.3256037358761317	0.43581823376054785	0.6930827473215607	-2.294027931777841	0.06627175662991687	0.6996285803462019	-2.4713827026020923	-0.021275080753180065	0.6912152735082002	-2.439978087326522	-0.03619012006094527	0.6497320528572865	-2.2484690051041216	-0.0028478350312435593	0.7129956125128859	-2.359898525452206	0.7662509130741576	0.8834742329357242	-2.318954553228045	0.4111170560335812	0.8726485100733443	-2.2747149725796882	0.05354500662284739	0.8517179099491649	-2.4392986080100227	-0.019325075322148704	0.8786435144248463	-2.4823617043793864	-0.049472265398393146	0.8945966505700796	-2.2275746351622723	-0.013464254647925257	0.8435469423058463	-2.334941171694362	1.4425166084443537	0.8227439031378083	-2.389638937672051	1.6584036600258563	0.7964595886559619	-2.451483006341255	1.5026350909256458	0.878158077186339	-2.3062461776329886	1.3449492174508222	0.6444084983505469	-2.2520600105098816	1.0678398793500472	0.6074292133436628	-2.2588358447115087	0.8214944483723814	0.6016948203356363	-2.3212543297128643	1.3197404709971794	1.0019508390273286	-2.2991386478639337	1.0293609948885871	1.000240338959776	-2.317097482368179	0.8068145439234368	1.000338311109845
517	17.233333333333334	-2.369804067167448	0.8022384134527902	0.8027138978472369	-2.3735161229272763	0.768654294907941	0.7144260185826601	-2.325800615071374	0.4351860227486866	0.6927843452552229	-2.2941217637728424	0.0662110681918462	0.6997802311642933	-2.4716142306299966	-0.02201874392153417	0.6915237443000761	-2.4401606702300214	-0.03668435843494776	0.6500181446251571	-2.2481841368979705	-0.0028093760007409764	0.7133456944944501	-2.360166877178756	0.76544187350992	0.8815504902313381	-2.3185016711168016	0.4110283203325882	0.8716113578306972	-2.2741975885725245	0.05417326663754782	0.851295136849236	-2.438800395346195	-0.01908954080168403	0.8780124852818542	-2.482001217952362	-0.04906104872407076	0.894976478873871	-2.227027964966607	-0.013240008060218553	0.8434637575296999	-2.3364801846322267	1.442087035729283	0.8199560219517755	-2.3921508053573914	1.6642853145561574	0.7727521069679617	-2.45179894732558	1.503705000479268	0.8828592197669047	-2.308539047347781	1.344376157546359	0.6415901065602155	-2.2539569138437945	1.066294068552709	0.6055820677254695	-2.2611149262001744	0.8204434868056106	0.5999123321511057	-2.3228978482106912	1.319433799250807	0.9988466268955783	-2.300509510311284	1.0341134778708634	0.9992962269236205	-2.319676992830158	0.8075038243460058	0.9982917345487904
518	17.266666666666666	-2.3704113257253896	0.8022434354719838	0.801422598963019	-2.37399857542109	0.7681219628907909	0.713301428581319	-2.325945734134542	0.4342922220591572	0.6926595913446973	-2.2942908045266064	0.06589515414502048	0.6995926929903351	-2.471621942900107	-0.022543946629183322	0.6919425317783641	-2.440280174824164	-0.037115531755049	0.6503892845521515	-2.24805364273093	-0.003009699980764592	0.7134291888283454	-2.3604134386743656	0.7650960359468619	0.8803583911675368	-2.3181672650592975	0.4104692265399888	0.8707628251152365	-2.2738126818377586	0.054489795583542354	0.8510050696142204	-2.4381564376503553	-0.018705744041407242	0.8778978823692419	-2.4822531969451567	-0.048911746053573985	0.8946894773736747	-2.226759177709893	-0.013128869569387358	0.8433187360641646	-2.337840994615813	1.441508132687193	0.8173403657843741	-2.394054025844434	1.6686925392338752	0.7600952572605122	-2.4523405367268483	1.504300228727898	0.8836532212291892	-2.310644981054553	1.343860964605144	0.6390738356137263	-2.255684869082854	1.0648729389934593	0.6039053994820323	-2.263390691865723	0.8193475454199236	0.5981110394108328	-2.3242084802291165	1.3192146506755682	0.9963852380651254	-2.3016709573736733	1.039651830812357	0.9989939823441821	-2.322402362375466	0.8078959421418905	0.9969143169419524
519	17.3	-2.3708879952091553	0.8022905816192828	0.8004698700756172	-2.3744245695356168	0.7681418806409	0.7124859637743077	-2.326136881187538	0.4333128290802034	0.6926372628257034	-2.294495106430616	0.06538986376307933	0.6991997443954331	-2.4714837766211772	-0.022802011065132056	0.6925195597228482	-2.4404528810685293	-0.03755850996053257	0.6508805547114016	-2.2481164874225104	-0.003370596350623214	0.7132994055803865	-2.3607193138852702	0.7652997536993695	0.8796678033295299	-2.3179531085452916	0.4096913438678439	0.8700479688798004	-2.2734830159057307	0.05450348543222332	0.8509200260214763	-2.4373619806892552	-0.018129689061634584	0.8781508997778155	-2.4828058995564746	-0.04885309582851542	0.8940631150089992	-2.2265941475202973	-0.013036828358056769	0.8432712905713403	-2.339047085626905	1.4409277394188627	0.8148967273061868	-2.394256605040417	1.6701321765792978	0.7640192306642293	-2.4530223460372964	1.5045788725719973	0.8824504356593353	-2.3126495893902295	1.3433312295236226	0.6369027269319466	-2.2573537151472416	1.0636451030033522	0.6023571324762379	-2.2656560726245885	0.8182759792084304	0.5962786860127316	-2.3251194556642387	1.3191849336597918	0.9945896046400075	-2.3027768391461905	1.0447306585292961	0.9990245811425016	-2.3250453519187984	0.8080665020603329	0.996011008375408
520	17.333333333333332	-2.371233310275037	0.80230562547293	0.7996353447520778	-2.3749677997358836	0.7684543724283451	0.7117674915969274	-2.326326172047251	0.4324910579550899	0.692634744115261	-2.2946960464490354	0.06486064993163711	0.6988419950250786	-2.4713411130413085	-0.022938281272527533	0.6932446575794575	-2.440826202973517	-0.03810814571952076	0.6515668518525268	-2.2483314505561647	-0.0037305357253438844	0.7130730175053559	-2.3609848354572605	0.7658479709210915	0.8791549888535342	-2.3177021651869665	0.40899822645236594	0.8694008115072434	-2.273158085131007	0.054335474239724485	0.8510499167864456	-2.4366088800550387	-0.017487279016651806	0.878550502838849	-2.483217042232068	-0.04874782014342634	0.8935391375666414	-2.2263908896189846	-0.012932914308580812	0.8433645696854585	-2.3401357904092364	1.440478866477699	0.8126232488348768	-2.3931861290173657	1.6688803312573623	0.7793585302734516	-2.4539057656884755	1.5046774364377076	0.880465772193641	-2.314612544006289	1.3427596954282253	0.6350035160546003	-2.2590540907894603	1.062645276723277	0.6009046121295725	-2.267868864114569	0.817383765367649	0.5944424650359919	-2.3255880172818326	1.319321654997428	0.9933033825694418	-2.3038399285299143	1.0484125835655433	0.9990362803351641	-2.3273098103247043	0.808077108914246	0.9953844521267724
521	17.366666666666667	-2.3715164819429426	0.8022495778587244	0.7987645433578093	-2.375635421706553	0.7687662474909139	0.7110614584261297	-2.3264270538492	0.4320025135052187	0.6925654543307029	-2.2948484583430675	0.06441646454744429	0.6987059752442456	-2.4712863655199193	-0.023131790316689348	0.6940379266398891	-2.441424453767672	-0.038799068809422486	0.6524414201680367	-2.2485996915741078	-0.0039984422991235355	0.7128802362560963	-2.3611425231592422	0.7664530088315769	0.878625947427811	-2.3173877577327024	0.4085628779825249	0.8688438210783568	-2.2728998814597	0.05415543893796664	0.8513449902009087	-2.436104956540267	-0.01693048292619986	0.878893121642718	-2.482795462845512	-0.048428851758260914	0.8934583175284779	-2.2261682084909773	-0.012852923026429083	0.8435419277196378	-2.3411618995296477	1.4402104174170556	0.810567879001111	-2.3920214008894036	1.6663657643881276	0.7963800173366413	-2.4550336232320635	1.5046525628286052	0.8783113535285937	-2.316512426483595	1.342186265658096	0.6332825782926439	-2.260791685478	1.0619039910261994	0.599527240673637	-2.26994046082354	0.8167926821053829	0.5926615209091901	-2.325693049420963	1.319578720418932	0.9922494453735475	-2.3047846370804574	1.0504820293986952	0.9988422383438414	-2.328923991906708	0.8079553822332365	0.9948293225154481
